<?xml version="1.0" encoding="UTF-8"?>
<svg version="1.1" xmlns="http://www.w3.org/2000/svg" width="512" height="512">
<path d="M0 0 C2.64 0 5.28 0 8 0 C8 7.92 8 15.84 8 24 C10.64 24 13.28 24 16 24 C16 21.36 16 18.72 16 16 C16.68513672 16.04302246 17.37027344 16.08604492 18.07617188 16.13037109 C30.53332496 17.32345192 30.53332496 17.32345192 41.87353516 13.59472656 C44.20274798 10.68626564 45.52972407 7.60335211 46.80078125 4.125 C47.19652344 3.09375 47.59226563 2.0625 48 1 C51 0 51 0 54.13671875 1.43359375 C55.3260128 2.09135973 56.50946371 2.75977815 57.6875 3.4375 C58.59725586 3.94506836 58.59725586 3.94506836 59.52539062 4.46289062 C61.0220025 5.29957915 62.51169189 6.14862831 64 7 C62.57250019 10.79049707 60.83763458 14.27122456 58.875 17.8125 C58.33617187 18.78832031 57.79734375 19.76414062 57.2421875 20.76953125 C56.83226562 21.50558594 56.42234375 22.24164063 56 23 C58.64 23.33 61.28 23.66 64 24 C64 26.64 64 29.28 64 32 C66.64 32 69.28 32 72 32 C72 26.39 72 20.78 72 15 C76.08092576 12.84403922 80.16466732 10.70285935 84.26806641 8.59130859 C85.65859158 7.87107133 87.04542772 7.14366089 88.42822266 6.40869141 C90.42958028 5.34659909 92.44328343 4.31197925 94.4609375 3.28125 C95.36783829 2.78908997 95.36783829 2.78908997 96.2930603 2.2869873 C102.12676388 -0.63353717 104.61896775 0 112 0 C112 7.92 112 15.84 112 24 C109.36 24 106.72 24 104 24 C103.67 19.38 103.34 14.76 103 10 C101.73542969 10.78246094 100.47085938 11.56492187 99.16796875 12.37109375 C97.50791103 13.39338918 95.84774937 14.41551584 94.1875 15.4375 C92.93743164 16.2119043 92.93743164 16.2119043 91.66210938 17.00195312 C90.85966797 17.49501953 90.05722656 17.98808594 89.23046875 18.49609375 C88.49207764 18.95169678 87.75368652 19.4072998 86.99291992 19.87670898 C85 21 85 21 82 22 C82 25.3 82 28.6 82 32 C142.06 32 202.12 32 264 32 C264 29.36 264 26.72 264 24 C279.84 24 295.68 24 312 24 C312 39.84 312 55.68 312 72 C314.64 72 317.28 72 320 72 C320 69.36 320 66.72 320 64 C322.64 64 325.28 64 328 64 C329.07470216 70.50393823 330.12958806 77.34569584 326.67285156 83.27734375 C324.92449721 85.53601224 323.08673447 87.54809072 321.0625 89.5625 C320.42368896 90.210979 319.78487793 90.85945801 319.12670898 91.52758789 C315.48958525 94.8359933 312.99127381 96.38570294 307.99609375 96.40234375 C306.66119531 96.30065735 305.32685527 96.17818265 304 96 C303.9690625 94.2365625 303.9690625 94.2365625 303.9375 92.4375 C303.30394946 87.99577046 301.80104449 85.51799425 298.55737305 82.45092773 C293.43750244 79.54616487 287.4460481 80.09362452 281.71459961 80.25219727 C279.4662505 80.31173862 277.22362679 80.31380231 274.97460938 80.30664062 C266.47640399 80.36647312 259.14521244 81.37870581 251.03540039 84.05151367 C243.38100675 86.44331929 235.57625984 86.36461813 227.625 86.4375 C226.92858398 86.44433807 226.23216797 86.45117615 225.51464844 86.45822144 C213.04532597 86.51793838 201.32454282 84.88491709 189.16259766 82.22241211 C181.76140334 80.60858504 174.65546281 79.59054015 167.10131836 79.28736877 C162.17394938 79.08697469 162.17394938 79.08697469 160 78 C160 78.66 160 79.32 160 80 C158.2828479 79.95286865 158.2828479 79.95286865 156.53100586 79.90478516 C152.261601 79.79573709 147.99231779 79.72714199 143.72192383 79.67041016 C141.87796288 79.64033767 140.03414379 79.5994674 138.19067383 79.54736328 C135.53170709 79.47412142 132.87463925 79.44044995 130.21484375 79.4140625 C129.39789536 79.38309479 128.58094696 79.35212708 127.73924255 79.32022095 C122.20140605 79.31700458 119.4066221 80.61130897 115.40870667 84.44564819 C114.18177971 85.79942622 113.04983453 87.2380944 111.9375 88.6875 C109.50327192 91.592869 107.55973257 92.69932848 104 94 C101.27661667 94.2261293 98.74138592 94.14179582 96 94 C96 94.66 96 95.32 96 96 C93.36 96 90.72 96 88 96 C88 98.64 88 101.28 88 104 C87.33613281 104.01417969 86.67226562 104.02835937 85.98828125 104.04296875 C80.05257635 104.3185875 80.05257635 104.3185875 75.125 107.4375 C74.42375 108.283125 73.7225 109.12875 73 110 C69.58564711 112.25033683 66.62942472 112.26362902 62.59838867 112.29052734 C61.29991501 112.30328705 60.00144135 112.31604675 58.66362 112.32919312 C57.24840443 112.33225115 55.83318687 112.33447871 54.41796875 112.3359375 C52.96071747 112.3423681 51.50346747 112.34909666 50.04621887 112.35610962 C46.99228932 112.36807702 43.93847283 112.3717911 40.88452148 112.37060547 C36.9839349 112.37040253 33.08407896 112.3976801 29.18366528 112.43214989 C26.1732098 112.45446399 23.16292875 112.45844161 20.15239906 112.45738602 C18.71516723 112.45973614 17.27793016 112.46852643 15.84078026 112.48405075 C1.78936663 112.6216014 1.78936663 112.6216014 -4 108 C-8.25895247 102.47505843 -8.54867894 98.01569558 -8.3125 91.1875 C-8.30283203 90.32962891 -8.29316406 89.47175781 -8.28320312 88.58789062 C-8.17014668 82.34029337 -8.17014668 82.34029337 -7 80 C-15.58 80 -24.16 80 -33 80 C-36 74 -36 74 -36 72 C-39.96 72 -43.92 72 -48 72 C-48.226875 72.78375 -48.45375 73.5675 -48.6875 74.375 C-49.8148138 77.48853335 -51.08969295 80.28046006 -52.58203125 83.2265625 C-53.03425049 84.12197754 -53.48646973 85.01739258 -53.95239258 85.93994141 C-54.29810303 86.61976074 -54.64381348 87.29958008 -55 88 C-62.48499746 88.16329461 -69.96980685 88.28712091 -77.4561882 88.3626852 C-80.93384141 88.39898229 -84.4102627 88.4480837 -87.88720703 88.52807617 C-91.89887242 88.61977685 -95.90927572 88.65284664 -99.921875 88.68359375 C-101.15049255 88.71972275 -102.37911011 88.75585175 -103.6449585 88.79307556 C-111.69191216 88.79668015 -116.66125943 87.16967799 -123.30841064 82.59877014 C-127.37355444 80.18412598 -131.34762651 79.92794997 -136 80 C-138.36160663 74.01957849 -140.17914438 68.04479994 -141.75 61.8125 C-141.98332031 60.93658203 -142.21664062 60.06066406 -142.45703125 59.15820312 C-144.45251512 51.27783418 -144.45251512 51.27783418 -143 47 C-141.07942708 46.77213542 -139.15885417 46.54427083 -137.23828125 46.31640625 C-132.7999676 45.68900066 -129.5528872 44.87623976 -125.6875 42.5625 C-118.02901542 38.60200201 -109.16587603 38.13880274 -100.65625 37.91015625 C-93.50149453 37.67965511 -89.56608633 36.00379434 -83.9609375 31.49609375 C-82 30 -82 30 -80 30 C-80 28.02 -80 26.04 -80 24 C-72.08 24 -64.16 24 -56 24 C-56 21.03 -56 18.06 -56 15 C-45.12084603 8.22480772 -36.71842575 7.06493227 -24.125 7.5625 C-22.55085207 7.59772274 -20.97662664 7.62964211 -19.40234375 7.65820312 C-15.59799972 7.72820946 -11.80475623 7.8651858 -8 8 C-8 13.28 -8 18.56 -8 24 C-5.36 24 -2.72 24 0 24 C0 16.08 0 8.16 0 0 Z M64 48 C64 50.64 64 53.28 64 56 C66.64 56 69.28 56 72 56 C72 53.36 72 50.72 72 48 C69.36 48 66.72 48 64 48 Z M82 48 C82 50.64 82 53.28 82 56 C89.26 56 96.52 56 104 56 C104 53.36 104 50.72 104 48 C96.74 48 89.48 48 82 48 Z M112 48 C112 50.64 112 53.28 112 56 C148.96 56 185.92 56 224 56 C224 53.36 224 50.72 224 48 C187.04 48 150.08 48 112 48 Z M232 48 C232 50.64 232 53.28 232 56 C242.56 56 253.12 56 264 56 C264 53.36 264 50.72 264 48 C253.44 48 242.88 48 232 48 Z M-88.67675781 52.00976562 C-89.59741028 52.2299939 -90.51806274 52.45022217 -91.46661377 52.67712402 C-92.94493683 53.03804138 -92.94493683 53.03804138 -94.453125 53.40625 C-95.46848328 53.65040649 -96.48384155 53.89456299 -97.52996826 54.14611816 C-100.77101911 54.92650391 -104.01050819 55.71317026 -107.25 56.5 C-109.44781668 57.03036242 -111.64573223 57.56031533 -113.84375 58.08984375 C-119.23032512 59.38848111 -124.61550811 60.69275308 -130 62 C-130 65.3 -130 68.6 -130 72 C-115.56043371 80.19050059 -103.24359464 81.01987147 -86.875 80.5 C-84.64459627 80.45975992 -82.41412145 80.42327802 -80.18359375 80.390625 C-74.7874775 80.30360986 -69.39408491 80.17069705 -64 80 C-63.1605118 77.89828133 -62.32860344 75.79353375 -61.5 73.6875 C-61.0359375 72.51574219 -60.571875 71.34398437 -60.09375 70.13671875 C-58.83537487 67.08153552 -58.83537487 67.08153552 -59 64 C-60.051875 63.773125 -61.10375 63.54625 -62.1875 63.3125 C-65.36566056 62.43993888 -66.07948687 61.91653879 -68.5 59.375 C-70.81597234 56.66968409 -70.81597234 56.66968409 -74.21435547 56.77832031 C-79.93460734 57.11328669 -85.46428728 58.22486796 -91.07080078 59.34375 C-93.12398071 59.74979842 -95.18061878 60.13303222 -97.23828125 60.515625 C-98.55756438 60.77465657 -99.87658529 61.03502796 -101.1953125 61.296875 C-102.38141113 61.52729492 -103.56750977 61.75771484 -104.78955078 61.99511719 C-108.32494807 63.10170998 -110.35407914 64.42884327 -113 67 C-113.87943404 69.63460948 -113.87943404 69.63460948 -114 72 C-114.66 72 -115.32 72 -116 72 C-114.52348993 64.49440716 -114.52348993 64.49440716 -112.3828125 62.47265625 C-109.32006194 60.57977598 -106.58183617 60.06857046 -103.046875 59.39453125 C-102.38665344 59.26559982 -101.72643188 59.1366684 -101.04620361 59.00382996 C-98.94925368 58.59669665 -96.84984155 58.20441589 -94.75 57.8125 C-93.32272837 57.53808695 -91.89564233 57.2627067 -90.46875 56.98632812 C-86.98124559 56.31300651 -83.49137906 55.65297026 -80 55 C-80 53.68 -80 52.36 -80 51 C-83.29105487 51 -85.54755178 51.25325428 -88.67675781 52.00976562 Z M70 72 C71.65 73.32 73.3 74.64 75 76 C75.49113281 76.73734375 75.98226562 77.4746875 76.48828125 78.234375 C77.88950666 80.25763807 77.88950666 80.25763807 80.48046875 80.390625 C81.37378906 80.34421875 82.26710937 80.2978125 83.1875 80.25 C84.08855469 80.21390625 84.98960937 80.1778125 85.91796875 80.140625 C86.60503906 80.09421875 87.29210937 80.0478125 88 80 C88 82.64 88 85.28 88 88 C96.9959761 89.6460692 96.9959761 89.6460692 105.6015625 87.68359375 C107.59752667 85.89955628 109.30527372 84.06992688 111 82 C116.73977512 76.12977544 119.95357257 74.80464274 128 74 C128 73.34 128 72.68 128 72 C108.86 72 89.72 72 70 72 Z M160 72 C160 72.66 160 73.32 160 74 C160.928125 74.00257813 161.85625 74.00515625 162.8125 74.0078125 C173.42093433 74.24029718 183.56145575 75.9368705 193.9375 78 C216.47610901 82.43539081 241.5004338 85.43999108 263 75 C263.33 74.01 263.66 73.02 264 72 C229.68 72 195.36 72 160 72 Z " fill="#53BCDA" transform="translate(168,296)"/>
<path d="M0 0 C0.94762207 0.82016602 1.89524414 1.64033203 2.87158203 2.48535156 C5.78390506 4.98611201 8.74202787 7.42038224 11.72607422 9.83496094 C17.59702599 14.63643475 23.29444748 19.61570588 28.875 24.75 C29.37513737 25.20958225 29.87527473 25.66916451 30.39056778 26.14267349 C43.01377505 37.85739489 52.10120341 48.45668356 53.27856445 66.44503784 C53.55566448 77.40882634 52.48839202 88.14957719 51 99 C57.93 81.675 57.93 81.675 65 64 C65.66 64 66.32 64 67 64 C69.50814683 72.12370847 72.00381318 80.25110121 74.48368931 88.38347912 C75.63561868 92.1596591 76.79178373 95.93443133 77.95776367 99.70629883 C79.08309012 103.34721292 80.1971123 106.99141095 81.30341911 110.63814735 C81.72721484 112.02801373 82.15505193 113.41665452 82.58700752 114.80400658 C83.19185557 116.74909249 83.78096115 118.69905249 84.36938477 120.64916992 C84.87901512 122.31129768 84.87901512 122.31129768 85.39894104 124.00700378 C86.04676476 127.23286691 86.12730627 128.91959837 85 132 C83.06420898 134.42353821 83.06420898 134.42353821 80.49609375 136.97387695 C79.79602707 137.67722923 79.79602707 137.67722923 79.08181763 138.39479065 C77.54315264 139.93575955 75.99071736 141.4619929 74.4375 142.98828125 C73.36435296 144.0565038 72.29201676 145.1255415 71.22045898 146.19535828 C68.97683478 148.43135161 66.72691685 150.66073065 64.47167969 152.88500977 C61.57433929 155.74265638 58.68798232 158.61107851 55.80558777 161.4837923 C53.06142043 164.21801227 50.3123014 166.94722926 47.5625 169.67578125 C47.0351828 170.1997027 46.5078656 170.72362415 45.96456909 171.26342201 C44.48038953 172.73608429 42.99278182 174.20518319 41.50390625 175.6730957 C40.65642822 176.51072952 39.8089502 177.34836334 38.93579102 178.21138 C37 180 37 180 36 180 C33.91358025 150.90781893 33.91358025 150.90781893 38.671875 144.26953125 C41.44408549 141.29011515 44.49555282 139.04947581 48 137 C46.56421017 133.54741315 44.85714544 131.87069526 41.90234375 129.62109375 C41.10119141 128.94369141 40.30003906 128.26628906 39.47460938 127.56835938 C37.82425547 126.18226537 36.12918358 124.84721223 34.38867188 123.57617188 C31.96484375 121.43359375 31.96484375 121.43359375 28 115 C27.67 106.09 27.34 97.18 27 88 C7.695 107.305 7.695 107.305 -12 127 C-10.03599754 130.92800492 -9.23534348 131.81123841 -5.8671875 134.23828125 C7.01313665 144.4648832 7.01313665 144.4648832 8.84375 152.87744141 C9.79577218 161.87067682 8.99897082 171.04683073 8 180 C6.53904907 178.73349609 6.53904907 178.73349609 5.04858398 177.44140625 C2.34492765 175.12024483 -0.40081791 172.86833354 -3.19116211 170.65234375 C-37.00291566 143.52148066 -37.00291566 143.52148066 -40.08935547 122.65267944 C-41.15291636 111.35908685 -41.14193183 98.2609314 -34.33868408 88.65405273 C-28.92863778 82.44765779 -22.48571906 77.26672434 -16.07601929 72.13381958 C-6.51582747 64.33632911 -0.38344255 57.8668123 1.24412537 45.26904297 C2.41917951 30.20068067 1.56887108 15.01290995 0 0 Z " fill="#FFFFFF" transform="translate(230,82)"/>
</svg>
