<?xml version="1.0" encoding="UTF-8"?>
<svg version="1.1" xmlns="http://www.w3.org/2000/svg" width="512" height="512">
<path d="M0 0 C44.6593887 -0.85315511 44.6593887 -0.85315511 62 4 C62.77843262 4.21430664 63.55686523 4.42861328 64.35888672 4.64941406 C103.03671574 15.66357719 136.42680478 41.74674269 156.25 76.75 C176.8762472 114.67581216 175 147.53786551 175 192 C117.25 192 59.5 192 0 192 C1.35224692 185.91488885 2.78848227 180.25017558 4.81323242 174.41015625 C5.08823074 173.60399872 5.36322906 172.79784119 5.64656067 171.96725464 C6.23832501 170.23321149 6.83202998 168.49982959 7.42751122 166.76705933 C8.37047062 164.01877662 9.30518278 161.26781941 10.23738098 158.51586914 C12.88613194 150.69721641 15.53970544 142.88031954 18.22241211 135.07324219 C19.8678109 130.28295479 21.49539626 125.48692957 23.1116581 120.68673706 C23.72825387 118.86654103 24.35140851 117.04855255 24.98137474 115.23294067 C25.86273721 112.6906077 26.72114956 110.14154213 27.57495117 107.58984375 C27.83722504 106.8508786 28.0994989 106.11191345 28.36972046 105.35055542 C31.18712907 96.75022569 29.09116211 89.35832754 26.22436523 81.03955078 C25.94136566 80.19449478 25.65836609 79.34943878 25.36679077 78.47877502 C24.43901198 75.71475199 23.49874399 72.95514917 22.55859375 70.1953125 C21.90891614 68.26511033 21.26017261 66.33459354 20.61231995 64.40377808 C18.91188861 59.34223943 17.20144101 54.28414972 15.48803711 49.22698975 C12.74002011 41.11273992 10.00434265 32.99434558 7.27433968 24.87401962 C6.319125 22.03906786 5.35780601 19.20623891 4.39585876 16.37356567 C3.81244728 14.64380702 3.22923039 12.91398273 2.64624023 11.18408203 C2.37663986 10.39549301 2.10703949 9.60690399 1.82926941 8.79441833 C0.80693653 5.74658365 0 3.23791367 0 0 Z " fill="#679452" transform="translate(193,88)"/>
<path d="M0 0 C19.7757356 -0.25496631 39.55100494 -0.45110446 59.3280468 -0.56993389 C68.51158581 -0.62658297 77.69408299 -0.70376995 86.87695312 -0.82983398 C94.88366698 -0.93969886 102.88962621 -1.01049236 110.89707291 -1.03497344 C115.13490709 -1.04927851 119.37058309 -1.08273061 123.60772324 -1.16303062 C127.60244684 -1.23811782 131.59414003 -1.26064879 135.58950233 -1.24418449 C137.04967205 -1.24719267 138.50995077 -1.26883795 139.96950722 -1.31126022 C146.12929642 -1.48140199 151.01110293 -1.55006445 155.99896622 2.33727074 C158.5561102 5.11368065 160.79077708 7.94241387 163 11 C164.51239274 12.86105783 166.03211372 14.71621024 167.5625 16.5625 C168.29597656 17.47128906 169.02945312 18.38007813 169.78515625 19.31640625 C171.95632827 21.94708557 174.20241357 24.47942424 176.5 27 C180.40911732 31.2891704 184.07546466 35.73437873 187.71875 40.25 C190.76647001 43.92396385 193.99031335 47.42019622 197.25 50.90625 C199 53 199 53 200 56 C94.4 56 -11.2 56 -120 56 C-117.70289687 52.17149478 -115.84236784 49.55508238 -112.875 46.375 C-108.7950059 41.92288918 -104.93647312 37.33622972 -101.140625 32.640625 C-100.08101562 31.33351563 -100.08101562 31.33351563 -99 30 C-98.32052811 28.96958588 -97.64105621 27.93917175 -96.94099426 26.87753296 C-95.35383134 24.9936354 -94.43529 24.12095681 -92.04541588 23.45686722 C-89.6120861 23.26091463 -87.2440568 23.25770016 -84.8034668 23.31884766 C-83.88590103 23.3179715 -82.96833527 23.31709534 -82.02296448 23.31619263 C-78.99750912 23.32036467 -75.97428554 23.36699883 -72.94921875 23.4140625 C-70.84887402 23.42525599 -68.74851359 23.43379545 -66.64814758 23.43978882 C-61.12560617 23.46267485 -55.60401475 23.52159711 -50.08184814 23.5880127 C-44.44467012 23.64943952 -38.80733826 23.67680475 -33.16992188 23.70703125 C-22.11279715 23.77134016 -11.05662627 23.87686444 0 24 C0 16.08 0 8.16 0 0 Z " fill="#679452" transform="translate(216,368)"/>
<path d="M0 0 C8.58 0 17.16 0 26 0 C30.07841302 11.96383201 34.14135224 23.932617 38.17750645 35.91077328 C40.05238808 41.47286896 41.93388192 47.03253901 43.83081055 52.5871582 C45.66216171 57.95056149 47.47571798 63.31968365 49.27723503 68.69317818 C49.96666638 70.73934766 50.66241819 72.78339904 51.36465645 74.82520866 C52.3493395 77.69179283 53.3110094 80.56517565 54.26782227 83.44116211 C54.56129044 84.27842331 54.85475861 85.11568451 55.15711975 85.97831726 C58.08601302 94.95120758 56.29022961 102.12186534 53.13256836 110.77563477 C52.83981522 111.60336899 52.54706207 112.43110321 52.24543762 113.28392029 C51.61334214 115.07092451 50.97754301 116.85662223 50.33839226 118.64111519 C48.60943311 123.48974178 46.93425293 128.357082 45.24804688 133.22070312 C43.11260928 139.36619377 40.96329272 145.50576533 38.76245117 151.62817383 C28.27654071 180.21922809 28.27654071 180.21922809 24.34765625 210.21875 C24.30785141 211.47470474 24.26804657 212.73065948 24.22703552 214.02467346 C24.44624828 220.24378001 25.45055747 224.0461995 29.91059875 228.57060242 C32.3509394 230.82364938 34.88560189 232.88684525 37.5 234.9375 C48.79100224 244.12921264 48.79100224 244.12921264 50.08935547 251.97265625 C51.30469162 264.0557856 49.91479094 275.86907671 49 288 C25.24 288 1.48 288 -23 288 C-25.83637232 250.38723657 -25.83637232 250.38723657 -20.74267578 243.31640625 C-17.9723355 240.151683 -14.8164711 237.50916935 -11.5 234.9375 C-2.56317043 228.12785929 -2.56317043 228.12785929 1.4223938 217.98799133 C2.14789371 209.03104239 2.16270262 198.33831585 -0.74133301 189.8273468 C-1.5043745 187.44309629 -1.99212893 185.50749307 -2 183 C-0.37065749 179.86299899 2.00022271 177.71231093 4.5859375 175.33984375 C5.62229843 174.32682945 5.62229843 174.32682945 6.67959595 173.29335022 C8.88689706 171.14750742 11.12931619 169.0430689 13.375 166.9375 C14.88008728 165.48759926 16.3827244 164.03515049 17.8828125 162.58007812 C21.56079025 159.02322114 25.27074186 155.50302196 29 152 C27.16307611 147.99625569 24.50882084 145.28042066 21.375 142.25 C20.859375 141.74339844 20.34375 141.23679688 19.8125 140.71484375 C18.54616661 139.47196098 17.2736856 138.23534724 16 137 C17.30319541 133.40138035 19.35479572 131.99165336 22.38092041 129.79547119 C27.687542 125.61919208 30.2462923 121.74379146 31.07617188 114.96289062 C31.55199293 107.72359452 31.40850523 100.49809713 31.25 93.25 C31.23801099 90.7031449 31.23144983 88.15625813 31.23046875 85.609375 C31.21634176 79.40411832 31.12837412 73.20390188 31 67 C27.37 67 23.74 67 20 67 C19.731875 66.26136719 19.46375 65.52273437 19.1875 64.76171875 C13.38805081 49.74801313 4.26819471 39.4442755 -10 32 C-7.32631265 21.12700479 -3.57863221 10.6008539 0 0 Z " fill="#FFFFFF" transform="translate(151,88)"/>
<path d="M0 0 C7.82203541 6.30432705 14.15522357 13.51023625 16.09375 23.6875 C16.21580329 26.36290816 16.13842313 29.00711238 16.09375 31.6875 C19.39375 31.6875 22.69375 31.6875 26.09375 31.6875 C31.05065809 63.05074719 31.05065809 63.05074719 23.14941406 74.43164062 C15.47020468 84.09635595 5.78592501 92.11763636 -3.90625 99.6875 C-2.25625 101.3375 -0.60625 102.9875 1.09375 104.6875 C4.39375 101.3875 7.69375 98.0875 11.09375 94.6875 C18.19196429 100.71428571 18.19196429 100.71428571 21.09375 103.6875 C19.81352125 106.49719467 18.48660871 108.5414238 16.29638672 110.71191406 C15.73595673 111.27219299 15.17552673 111.83247192 14.59811401 112.409729 C13.99597076 113.00154968 13.39382751 113.59337036 12.7734375 114.203125 C12.15477814 114.81895447 11.53611877 115.43478394 10.89871216 116.0692749 C8.92671186 118.03010336 6.94786263 119.98385301 4.96875 121.9375 C3.62844836 123.26776799 2.28859917 124.598492 0.94921875 125.9296875 C-2.33071589 129.1876015 -5.61680942 132.43918533 -8.90625 135.6875 C-12.08711518 134.17803489 -14.20494906 132.60808175 -16.65625 130.0625 C-17.26984375 129.43085938 -17.8834375 128.79921875 -18.515625 128.1484375 C-18.97453125 127.66632813 -19.4334375 127.18421875 -19.90625 126.6875 C-19.34357422 126.03394531 -19.34357422 126.03394531 -18.76953125 125.3671875 C-15.44765223 121.50142401 -12.15982073 117.61092352 -8.90625 113.6875 C-10.55625 112.3675 -12.20625 111.0475 -13.90625 109.6875 C-14.64875 110.30625 -15.39125 110.925 -16.15625 111.5625 C-21.93042082 116.02435927 -26.70055819 116.52467581 -33.90625 115.6875 C-36.80493413 114.6683938 -39.29205977 113.28279649 -41.90625 111.6875 C-43.23440854 111.01058264 -44.56650171 110.34117939 -45.90625 109.6875 C-47.22625 111.3375 -48.54625 112.9875 -49.90625 114.6875 C-46.27625 118.3175 -42.64625 121.9475 -38.90625 125.6875 C-44.93303571 132.78571429 -44.93303571 132.78571429 -47.90625 135.6875 C-50.71594467 134.40727125 -52.7601738 133.08035871 -54.93066406 130.89013672 C-55.49094299 130.32970673 -56.05122192 129.76927673 -56.628479 129.19186401 C-57.22029968 128.58972076 -57.81212036 127.98757751 -58.421875 127.3671875 C-59.03770447 126.74852814 -59.65353394 126.12986877 -60.2880249 125.49246216 C-62.24885336 123.52046186 -64.20260301 121.54161263 -66.15625 119.5625 C-67.48651799 118.22219836 -68.817242 116.88234917 -70.1484375 115.54296875 C-73.4063515 112.26303411 -76.65793533 108.97694058 -79.90625 105.6875 C-78.39678489 102.50663482 -76.82683175 100.38880094 -74.28125 97.9375 C-73.64960937 97.32390625 -73.01796875 96.7103125 -72.3671875 96.078125 C-71.64402344 95.38976562 -71.64402344 95.38976562 -70.90625 94.6875 C-70.45894531 95.07421875 -70.01164062 95.4609375 -69.55078125 95.859375 C-66.0541474 98.87140075 -62.53217537 101.83071031 -58.90625 104.6875 C-57.58625 103.3675 -56.26625 102.0475 -54.90625 100.6875 C-56.43747132 96.55674965 -59.40552481 94.55079213 -62.7890625 91.98046875 C-82.92877905 75.67184511 -82.92877905 75.67184511 -84.44680786 62.99024963 C-85.13743607 52.53626276 -84.256973 42.0568966 -82.90625 31.6875 C-79.93625 31.6875 -76.96625 31.6875 -73.90625 31.6875 C-73.88498047 30.67042969 -73.88498047 30.67042969 -73.86328125 29.6328125 C-73.29384236 18.52105901 -69.02107411 10.97277024 -61.42578125 2.94921875 C-57.32368271 -0.73313017 -52.93991164 -3.12426546 -47.90625 -5.3125 C-47.16246094 -5.65152344 -46.41867188 -5.99054688 -45.65234375 -6.33984375 C-30.90796042 -11.9042458 -12.57324544 -9.11104742 0 0 Z M-61.90625 32.6875 C-61.90625 42.2575 -61.90625 51.8275 -61.90625 61.6875 C-56.95625 65.6475 -56.95625 65.6475 -51.90625 69.6875 C-48.37447678 68.80455669 -46.66030641 68.06862016 -43.71875 66.1484375 C-42.93757813 65.65085938 -42.15640625 65.15328125 -41.3515625 64.640625 C-39.71778542 63.58623852 -38.08757423 62.52630661 -36.4609375 61.4609375 C-35.67976563 60.9659375 -34.89859375 60.4709375 -34.09375 59.9609375 C-33.38605469 59.50122559 -32.67835937 59.04151367 -31.94921875 58.56787109 C-29.90625 57.6875 -29.90625 57.6875 -27.90405273 57.88452148 C-25.645183 58.79243088 -23.77906708 59.90936264 -21.75390625 61.26171875 C-20.97724609 61.76380859 -20.20058594 62.26589844 -19.40039062 62.78320312 C-17.7766305 63.8461465 -16.15940384 64.91913668 -14.54882812 66.00195312 C-10.27348471 68.93574952 -10.27348471 68.93574952 -5.33984375 69.39453125 C-1.8000424 66.91155663 1.63469981 64.28178764 5.09375 61.6875 C5.09375 52.1175 5.09375 42.5475 5.09375 32.6875 C-17.01625 32.6875 -39.12625 32.6875 -61.90625 32.6875 Z M-32.90625 66.6875 C-33.15655977 69.27130177 -33.15655977 69.27130177 -32.90625 71.6875 C-30.43125 72.6775 -30.43125 72.6775 -27.90625 73.6875 C-26.24003575 72.5229799 -26.24003575 72.5229799 -24.90625 70.6875 C-25.13668864 68.03283951 -25.13668864 68.03283951 -25.90625 65.6875 C-29.39206856 64.4854936 -29.58617344 64.47411563 -32.90625 66.6875 Z M-46.90625 76.6875 C-46.58583603 79.29030568 -46.58583603 79.29030568 -45.90625 81.6875 C-43.50905568 82.36708603 -43.50905568 82.36708603 -40.90625 82.6875 C-40.24625 82.0275 -39.58625 81.3675 -38.90625 80.6875 C-39.22823966 77.58823181 -39.22823966 77.58823181 -39.90625 74.6875 C-43.86082848 74.33926193 -43.86082848 74.33926193 -46.90625 76.6875 Z M-18.90625 76.6875 C-18.58583603 79.29030568 -18.58583603 79.29030568 -17.90625 81.6875 C-15.50905568 82.36708603 -15.50905568 82.36708603 -12.90625 82.6875 C-10.63785017 80.85484675 -10.63785017 80.85484675 -10.71875 78.125 C-10.63621677 75.74060277 -10.63621677 75.74060277 -11.90625 74.6875 C-15.867418 74.29659667 -15.867418 74.29659667 -18.90625 76.6875 Z M-29.90625 81.6875 C-30.89625 82.3475 -31.88625 83.0075 -32.90625 83.6875 C-33.15655977 86.27130177 -33.15655977 86.27130177 -32.90625 88.6875 C-30.57770537 89.88588209 -30.57770537 89.88588209 -27.90625 90.6875 C-26.91625 90.0275 -25.92625 89.3675 -24.90625 88.6875 C-24.65594023 86.10369823 -24.65594023 86.10369823 -24.90625 83.6875 C-27.23479463 82.48911791 -27.23479463 82.48911791 -29.90625 81.6875 Z M-46.90625 93.6875 C-46.58583603 96.29030568 -46.58583603 96.29030568 -45.90625 98.6875 C-43.50905568 99.36708603 -43.50905568 99.36708603 -40.90625 99.6875 C-40.24625 99.0275 -39.58625 98.3675 -38.90625 97.6875 C-39.22823966 94.58823181 -39.22823966 94.58823181 -39.90625 91.6875 C-43.86082848 91.33926193 -43.86082848 91.33926193 -46.90625 93.6875 Z M-16.90625 91.6875 C-17.56625 92.3475 -18.22625 93.0075 -18.90625 93.6875 C-18.58583603 96.29030568 -18.58583603 96.29030568 -17.90625 98.6875 C-15.50905568 99.36708603 -15.50905568 99.36708603 -12.90625 99.6875 C-12.24625 99.0275 -11.58625 98.3675 -10.90625 97.6875 C-11.22666397 95.08469432 -11.22666397 95.08469432 -11.90625 92.6875 C-14.30344432 92.00791397 -14.30344432 92.00791397 -16.90625 91.6875 Z M-29.90625 98.6875 C-31.55180699 99.91559091 -31.55180699 99.91559091 -32.90625 101.6875 C-32.98267709 103.79899645 -32.98267709 103.79899645 -31.90625 105.6875 C-29.9224733 106.97186734 -29.9224733 106.97186734 -27.90625 107.6875 C-26.91625 107.0275 -25.92625 106.3675 -24.90625 105.6875 C-24.65594023 103.10369823 -24.65594023 103.10369823 -24.90625 100.6875 C-27.38125 99.6975 -27.38125 99.6975 -29.90625 98.6875 Z " fill="#FFFFFF" transform="translate(144.90625,134.3125)"/>
<path d="M0 0 C47.52 0 95.04 0 144 0 C144 18.48 144 36.96 144 56 C104.4 56 64.8 56 24 56 C23.67 48.74 23.34 41.48 23 34 C19.2232896 28.99794411 16.18739648 25.54690618 11.4375 21.8125 C9.78130753 20.45584461 8.14590715 19.0849732 6.53590393 17.67375183 C5.08930911 16.41325487 3.59359281 15.2097708 2.09545898 14.01098633 C0 11 0 11 0 0 Z " fill="#679452" transform="translate(192,296)"/>
<path d="M0 0 C53.13 0 106.26 0 161 0 C161 18.48 161 36.96 161 56 C137.65221643 56.4411969 137.65221643 56.4411969 127.66992188 56.53710938 C120.8680945 56.60277368 114.06790177 56.68029155 107.26733398 56.82983398 C101.78176984 56.94969963 96.29795883 57.01519552 90.81118584 57.04364967 C88.72223754 57.06391518 86.63338121 57.10349342 84.54518318 57.16303062 C68.18724301 57.61070248 68.18724301 57.61070248 62.81686401 53.65591431 C60.52765648 50.87566397 58.78691764 48.11817701 57 45 C55.5594558 43.27941211 54.08426022 41.58669257 52.5625 39.9375 C51.80839844 39.11636719 51.05429687 38.29523438 50.27734375 37.44921875 C49.52582031 36.64097656 48.77429688 35.83273438 48 35 C47.30003906 34.22269531 46.60007812 33.44539063 45.87890625 32.64453125 C32.92689529 18.88442255 16.86586653 9.19684891 0 1 C0 0.67 0 0.34 0 0 Z " fill="#679452" transform="translate(287,88)"/>
</svg>
