<?xml version="1.0" encoding="UTF-8"?>
<svg version="1.1" xmlns="http://www.w3.org/2000/svg" width="512" height="512">
<path d="M0 0 C3.33394381 0.08065993 6.63767828 0.00064649 9.97070312 -0.09521484 C26.63846341 -0.16591749 26.63846341 -0.16591749 32.65234375 5.40966797 C34.55526097 7.42995713 36.33862909 9.51421437 38.11315918 11.64761353 C41.93129021 16.11914168 41.93129021 16.11914168 47.32226562 18.03808594 C51.51716134 18.27693791 55.66202263 17.92322087 59.83007812 17.45556641 C68.5676791 16.47521043 75.44847572 16.41498177 82.7752533 21.85667419 C89.75725311 28.02189254 92.1469644 33.89676514 92.73165894 43.14547729 C92.84037419 49.57887183 92.58302456 55.96867248 92.26757812 62.39306641 C92.18358983 65.07046731 92.12209506 67.74822614 92.0625 70.42626953 C91.91117643 76.94528876 91.61800994 83.4355103 91.33007812 89.95556641 C75.49007812 89.95556641 59.65007812 89.95556641 43.33007812 89.95556641 C43.80445313 97.56619141 44.27882813 105.17681641 44.76757812 113.01806641 C45.36823973 141.65368883 45.36823973 141.65368883 35.42263794 152.11978149 C25.84659267 161.24379776 14.30790389 165.0663072 1.13586426 164.78344727 C-11.24079247 164.00028066 -21.59383567 159.66358982 -30.17016602 150.63842773 C-43.33511984 134.81274453 -37.79781529 108.05089992 -36.66992188 89.95556641 C-52.50992188 89.95556641 -68.34992188 89.95556641 -84.66992188 89.95556641 C-84.98676069 82.78092755 -85.28649505 75.63220175 -85.44617462 68.45662689 C-85.52476023 65.11355377 -85.63748506 61.78079849 -85.80151367 58.44018555 C-86.96551307 34.10575101 -86.96551307 34.10575101 -80.07521057 25.60316467 C-74.64763882 20.10942863 -69.33992965 16.86202202 -61.51367188 16.79931641 C-58.01196971 16.91502169 -54.55634922 17.30000971 -51.07666016 17.69042969 C-43.76650584 18.44138601 -43.76650584 18.44138601 -36.66992188 16.95556641 C-34.01084074 14.76731859 -31.89842825 12.18311868 -29.70117188 9.54150391 C-21.30268449 -0.27973015 -12.37673579 -0.35596806 0 0 Z M-20.66992188 33.95556641 C-20.66992188 47.15556641 -20.66992188 60.35556641 -20.66992188 73.95556641 C-4.82992187 73.95556641 11.01007813 73.95556641 27.33007812 73.95556641 C27.33007812 60.75556641 27.33007812 47.55556641 27.33007812 33.95556641 C11.49007812 33.95556641 -4.34992188 33.95556641 -20.66992188 33.95556641 Z " fill="#53BCDA" transform="translate(252.669921875,206.04443359375)"/>
<path d="M0 0 C1.11784882 0.1997644 2.23569763 0.39952881 3.38742065 0.60534668 C6.92385588 1.2392258 10.45798838 1.88503224 13.9921875 2.53125 C16.40350313 2.96563665 18.81496032 3.39923829 21.2265625 3.83203125 C27.10843814 4.8893659 32.98847485 5.9564763 38.8671875 7.03125 C39.51975168 18.4687215 40.01518519 29.90169647 40.31792831 41.35407162 C40.46336987 46.67499694 40.65983481 51.98309828 40.97949219 57.29663086 C43.05022702 92.63778522 43.05022702 92.63778522 36.26119995 100.54125977 C30.04981787 106.46386734 22.13468075 109.69992804 14.22003174 112.70303345 C9.95501039 114.39260551 6.36880897 116.61947525 2.62109375 119.2265625 C1.56083984 119.89816406 0.50058594 120.56976563 -0.59179688 121.26171875 C-2.67330105 122.5856919 -4.74833181 123.91987286 -6.81835938 125.26171875 C-7.84896484 125.91011719 -8.87957031 126.55851563 -9.94140625 127.2265625 C-10.82626709 127.79391113 -11.71112793 128.36125977 -12.62280273 128.94580078 C-15.72744341 130.28839707 -16.95879091 130.12156981 -20.1328125 129.03125 C-22.76635742 127.70288086 -22.76635742 127.70288086 -25.61328125 125.99609375 C-26.69802734 125.34962891 -27.78277344 124.70316406 -28.90039062 124.03710938 C-30.02896484 123.35455078 -31.15753906 122.67199219 -32.3203125 121.96875 C-33.36767578 121.34419922 -34.41503906 120.71964844 -35.49414062 120.07617188 C-37.22101783 119.04204773 -38.94669582 118.0035619 -40.62683105 116.89511108 C-44.87842432 114.14519941 -49.04476506 112.27557201 -53.80078125 110.52001953 C-61.19319708 107.45241798 -68.85364153 104.12850492 -73.1328125 97.03125 C-77.89265897 83.90626469 -75.67871399 67.85739442 -74.91809082 54.21203613 C-74.64998836 48.89143762 -74.53294254 43.56762081 -74.40234375 38.2421875 C-74.12511776 27.83006707 -73.6827346 17.43228841 -73.1328125 7.03125 C-66.05492419 5.7372374 -58.97464068 4.45700216 -51.89257812 3.18603516 C-49.48673991 2.75263523 -47.08145413 2.31615638 -44.67675781 1.87646484 C-41.20781035 1.24274246 -37.73698614 0.62034721 -34.265625 0 C-32.66970016 -0.29529602 -32.66970016 -0.29529602 -31.04153442 -0.59655762 C-20.16907505 -2.51664727 -10.82759047 -2.00344296 0 0 Z " fill="#FFFFFF" transform="translate(401.1328125,55.96875)"/>
<path d="M0 0 C10.56 0 21.12 0 32 0 C32.62495174 10.36453783 33.16826916 20.68845372 33.4375 31.0625 C33.46703262 32.19453417 33.46703262 32.19453417 33.49716187 33.34943771 C34.2490311 65.91937764 34.2490311 65.91937764 25.35191345 75.52330017 C21.91288027 78.77460645 18.03385301 81.17779762 14.03125 83.69140625 C10.37796 86.1801943 9.19896297 87.35713335 7.87695312 91.62866211 C7.17104067 97.4143366 7.70824037 102.63548135 11.20117188 107.42749023 C14.02138971 110.74221089 17.22582754 113.58322798 20.5 116.4375 C21.61175506 117.46020435 22.71986767 118.48688312 23.82421875 119.51757812 C25.82532688 121.38185263 27.84377264 123.21138352 29.88867188 125.02905273 C30.58541016 125.67946533 31.28214844 126.32987793 32 127 C32 127.33 32 127.66 32 128 C5.6 128 -20.8 128 -48 128 C-41.37393909 120.26959561 -41.37393909 120.26959561 -37.73046875 117.6171875 C-28.83288858 110.70974898 -28.83288858 110.70974898 -24.49365234 100.75 C-24.47992046 97.10443907 -24.63533794 93.51260065 -24.875 89.875 C-25.6514782 77.02774132 -25.6514782 77.02774132 -21.78613281 72.28173828 C-18.76773324 69.72364208 -15.6617936 67.31274695 -12.5 64.9375 C-5.57010573 59.69712487 -1.15136573 54.76245511 0.18310547 45.93457031 C1.71560775 30.68950948 0.85181381 15.25931367 0 0 Z " fill="#53BCDA" transform="translate(312,312)"/>
<path d="M0 0 C10.56 0 21.12 0 32 0 C31.80535156 3.48691406 31.61070312 6.97382813 31.41015625 10.56640625 C29.06545069 35.43814264 29.06545069 35.43814264 36.67015076 57.99116516 C39.59111944 61.07241019 42.77058258 63.6367337 46.1567688 66.18362427 C55.58099773 73.27942158 55.58099773 73.27942158 56.8125 78.33642578 C56.98434564 83.3353886 56.60762302 88.20723943 56.19311523 93.1862793 C55.90865585 100.88733318 57.04230043 105.25835222 62.09765625 110.921875 C66.98036333 116.1027296 72.37309106 120.76400694 77.90454102 125.23535156 C78.59604248 125.81768555 79.28754395 126.40001953 80 127 C80 127.33 80 127.66 80 128 C53.6 128 27.2 128 0 128 C6.65501705 120.23581344 6.65501705 120.23581344 10.3046875 117.16015625 C11.05234375 116.48791016 11.8 115.81566406 12.5703125 115.12304688 C14.10264516 113.75303759 15.66305466 112.41378066 17.25 111.10742188 C22.07225232 106.65061899 23.95452577 102.53058218 24.2265625 95.9609375 C24.17061331 91.76516793 23.74102093 88.8107242 20.81201172 85.60620117 C18.83605108 84.27549026 16.83604582 82.9800754 14.81860352 81.71313477 C8.12751624 77.37694792 2.81846314 72.65472616 0 65 C-2.10530031 53.86281106 -1.73190238 42.34742876 -1.4375 31.0625 C-1.41781158 30.3038628 -1.39812317 29.5452256 -1.37783813 28.7635994 C-1.11029467 19.15854305 -0.57865853 9.59678608 0 0 Z " fill="#53BCDA" transform="translate(168,312)"/>
<path d="M0 0 C21.78 0 43.56 0 66 0 C66 16.5 66 33 66 50 C44.22 50 22.44 50 0 50 C0 33.5 0 17 0 0 Z " fill="#FFFFFF" transform="translate(56,94)"/>
<path d="M0 0 C3.3 0 6.6 0 10 0 C10 3.96 10 7.92 10 12 C6.7 12 3.4 12 0 12 C0 8.04 0 4.08 0 0 Z " fill="#FFFFFF" transform="translate(130,132)"/>
<path d="M0 0 C3.96 0 7.92 0 12 0 C12 3.3 12 6.6 12 10 C8.04 10 4.08 10 0 10 C0 6.7 0 3.4 0 0 Z " fill="#FFFFFF" transform="translate(148,114)"/>
<path d="M0 0 C3.3 0 6.6 0 10 0 C10 3.96 10 7.92 10 12 C6.7 12 3.4 12 0 12 C0 8.04 0 4.08 0 0 Z " fill="#FFFFFF" transform="translate(130,94)"/>
<path d="M0 0 C3.3 0 6.6 0 10 0 C10 3.3 10 6.6 10 10 C6.7 10 3.4 10 0 10 C0 6.7 0 3.4 0 0 Z " fill="#FFFFFF" transform="translate(130,114)"/>
<path d="M0 0 C2.97 0 5.94 0 9 0 C6.46636932 4.22271781 4.43379675 6.78310162 0 9 C0 6.03 0 3.06 0 0 Z " fill="#FFFFFF" transform="translate(148,132)"/>
<path d="M0 0 C4.22271781 2.53363068 6.78310162 4.56620325 9 9 C6.03 9 3.06 9 0 9 C0 6.03 0 3.06 0 0 Z " fill="#FFFFFF" transform="translate(148,97)"/>
</svg>
