<?xml version="1.0" encoding="UTF-8"?>
<svg version="1.1" xmlns="http://www.w3.org/2000/svg" width="512" height="512">
<path d="M0 0 C3.33394381 0.08065993 6.63767828 0.00064649 9.97070312 -0.09521484 C26.63846341 -0.16591749 26.63846341 -0.16591749 32.65234375 5.40966797 C34.55526097 7.42995713 36.33862909 9.51421437 38.11315918 11.64761353 C41.93129021 16.11914168 41.93129021 16.11914168 47.32226562 18.03808594 C51.51716134 18.27693791 55.66202263 17.92322087 59.83007812 17.45556641 C68.5676791 16.47521043 75.44847572 16.41498177 82.7752533 21.85667419 C89.75725311 28.02189254 92.1469644 33.89676514 92.73165894 43.14547729 C92.84037419 49.57887183 92.58302456 55.96867248 92.26757812 62.39306641 C92.18358983 65.07046731 92.12209506 67.74822614 92.0625 70.42626953 C91.91117643 76.94528876 91.61800994 83.4355103 91.33007812 89.95556641 C75.49007812 89.95556641 59.65007812 89.95556641 43.33007812 89.95556641 C43.80445313 97.56619141 44.27882813 105.17681641 44.76757812 113.01806641 C45.36823973 141.65368883 45.36823973 141.65368883 35.42263794 152.11978149 C25.84659267 161.24379776 14.30790389 165.0663072 1.13586426 164.78344727 C-11.24079247 164.00028066 -21.59383567 159.66358982 -30.17016602 150.63842773 C-43.33511984 134.81274453 -37.79781529 108.05089992 -36.66992188 89.95556641 C-52.50992188 89.95556641 -68.34992188 89.95556641 -84.66992188 89.95556641 C-84.98676069 82.78092755 -85.28649505 75.63220175 -85.44617462 68.45662689 C-85.52476023 65.11355377 -85.63748506 61.78079849 -85.80151367 58.44018555 C-86.96551307 34.10575101 -86.96551307 34.10575101 -80.07521057 25.60316467 C-74.64763882 20.10942863 -69.33992965 16.86202202 -61.51367188 16.79931641 C-58.01196971 16.91502169 -54.55634922 17.30000971 -51.07666016 17.69042969 C-43.76650584 18.44138601 -43.76650584 18.44138601 -36.66992188 16.95556641 C-34.01084074 14.76731859 -31.89842825 12.18311868 -29.70117188 9.54150391 C-21.30268449 -0.27973015 -12.37673579 -0.35596806 0 0 Z M-20.66992188 33.95556641 C-20.66992188 47.15556641 -20.66992188 60.35556641 -20.66992188 73.95556641 C-4.82992187 73.95556641 11.01007813 73.95556641 27.33007812 73.95556641 C27.33007812 60.75556641 27.33007812 47.55556641 27.33007812 33.95556641 C11.49007812 33.95556641 -4.34992188 33.95556641 -20.66992188 33.95556641 Z " fill="#53BCDA" transform="translate(252.669921875,206.04443359375)"/>
<path d="M0 0 C15.62015297 -0.60163214 15.62015297 -0.60163214 22.37304688 -0.73242188 C26.95054784 -0.82150486 31.52347573 -0.92582027 36.09741211 -1.1315918 C63.28197733 -2.32363845 63.28197733 -2.32363845 69.62841797 3.37939453 C71.46590478 5.38659119 73.11742126 7.46607459 74.770401 9.62654114 C77.95637532 13.57574683 80.04408086 15.44536498 85.17797852 16.15063477 C91.13277342 16.47305328 97.05631733 16.15012902 103 15.75 C126.3660352 14.34218136 126.3660352 14.34218136 136.57421875 22.92425537 C138.06990825 24.26031301 139.5368937 25.62833785 141 27 C141.99 27.66 142.98 28.32 144 29 C142.87316258 32.38051227 142.28873197 32.7648686 139.4375 34.6640625 C138.72335938 35.14617187 138.00921875 35.62828125 137.2734375 36.125 C136.52320313 36.62 135.77296875 37.115 135 37.625 C133.52037381 38.61650209 132.04118388 39.60865563 130.5625 40.6015625 C129.90378906 41.03807129 129.24507812 41.47458008 128.56640625 41.92431641 C127.02964039 42.90948969 127.02964039 42.90948969 126 44 C124.63462663 44.04429552 123.26693145 44.019955 121.90185547 43.96728516 C116.96571183 43.80620938 112.03370724 43.72848044 107.09521484 43.67871094 C104.97289222 43.64331208 102.85081757 43.5830214 100.72998047 43.49609375 C88.79380981 42.55120379 88.79380981 42.55120379 78.03305054 46.52383423 C76.28269979 48.45933731 74.68074699 50.45311617 73.09765625 52.52734375 C69.75263092 56.75764837 66.9782322 59.52484689 61.62133789 60.81152344 C52.37605487 61.81973825 43.11212956 61.44716879 33.83850098 61.02996826 C29.34304438 60.84732904 24.84446305 60.78028815 20.34633636 60.69316864 C13.55789588 60.5490861 6.78947211 60.26150606 0 60 C0 40.2 0 20.4 0 0 Z " fill="#FFFFFF" transform="translate(56,90)"/>
<path d="M0 0 C0.4241922 0.36822876 0.8483844 0.73645752 1.28543091 1.11584473 C4.29517414 3.71412324 7.31979783 6.27639903 10.44091797 8.74023438 C35.66997827 28.81365601 35.66997827 28.81365601 37.85479736 42.70889282 C38.87219578 52.85011408 38.10908016 62.89925534 37 73 C40.3 64.75 43.6 56.5 47 48 C47.66 48 48.32 48 49 48 C51.17177707 54.02623419 53.32430895 60.05908965 55.46362305 66.09692383 C56.19358464 68.14993068 56.92793127 70.20138392 57.66674805 72.2512207 C58.72822378 75.198654 59.77378214 78.15132261 60.81640625 81.10546875 C61.14967422 82.02023483 61.4829422 82.93500092 61.8263092 83.87748718 C62.12669601 84.73800186 62.42708282 85.59851654 62.73657227 86.48510742 C63.13961327 87.61428841 63.13961327 87.61428841 63.55079651 88.76628113 C64.11178366 91.55585782 63.87119232 93.29287048 63 96 C61.51977539 97.9679718 61.51977539 97.9679718 59.59765625 99.87231445 C58.8802124 100.59268387 58.16276855 101.31305328 57.42358398 102.05525208 C56.64442627 102.8169017 55.86526855 103.57855133 55.0625 104.36328125 C54.267229 105.15526413 53.47195801 105.94724701 52.65258789 106.76322937 C50.97256261 108.43284 49.28778411 110.09767943 47.59863281 111.75805664 C45.00118085 114.31133923 42.41740669 116.87783412 39.8359375 119.44726562 C38.20389882 121.06588478 36.57111194 122.68374995 34.9375 124.30078125 C34.15834229 125.07255203 33.37918457 125.84432281 32.57641602 126.63948059 C31.85897217 127.3440892 31.14152832 128.04869781 30.40234375 128.7746582 C29.76804443 129.39911331 29.13374512 130.02356842 28.48022461 130.66694641 C27 132 27 132 26 132 C24.26131687 112.61769547 24.26131687 112.61769547 28.2265625 107.37890625 C30.70271652 104.97599059 33.12609509 102.90396201 36 101 C34.4300089 96.74423796 31.35958707 94.77224435 27.9375 91.9375 C22 85 22 85 21 66 C11.43 75.57 1.86 85.14 -8 95 C-6.09900792 98.80198416 -4.76862542 100.02855129 -1.55566406 102.55371094 C2.29633318 105.72528566 5.4816791 108.58071686 6.55957031 113.61181641 C7.0554974 119.76025718 6.67111989 125.8773216 6 132 C4.45664873 130.66496755 2.91343182 129.32977966 1.37060547 127.99414062 C-0.36636562 126.53300985 -2.13531077 125.10966436 -3.92138672 123.70898438 C-15.15092929 114.86502361 -26.71237823 105.4115539 -28.81463623 90.52716064 C-29.57188416 82.24468836 -29.75360388 72.40372954 -24.82000732 65.30126953 C-20.98328989 60.87182438 -16.36736684 57.22166286 -11.78744507 53.59402466 C-4.77809448 47.92615452 -0.54344532 43.20519457 0.64811707 34.02401733 C1.56396214 22.69602427 0.9966645 11.3048407 0 0 Z " fill="#FFFFFF" transform="translate(368,54)"/>
<path d="M0 0 C10.56 0 21.12 0 32 0 C32.62495174 10.36453783 33.16826916 20.68845372 33.4375 31.0625 C33.46703262 32.19453417 33.46703262 32.19453417 33.49716187 33.34943771 C34.2490311 65.91937764 34.2490311 65.91937764 25.35191345 75.52330017 C21.91288027 78.77460645 18.03385301 81.17779762 14.03125 83.69140625 C10.37796 86.1801943 9.19896297 87.35713335 7.87695312 91.62866211 C7.17104067 97.4143366 7.70824037 102.63548135 11.20117188 107.42749023 C14.02138971 110.74221089 17.22582754 113.58322798 20.5 116.4375 C21.61175506 117.46020435 22.71986767 118.48688312 23.82421875 119.51757812 C25.82532688 121.38185263 27.84377264 123.21138352 29.88867188 125.02905273 C30.58541016 125.67946533 31.28214844 126.32987793 32 127 C32 127.33 32 127.66 32 128 C5.6 128 -20.8 128 -48 128 C-41.37393909 120.26959561 -41.37393909 120.26959561 -37.73046875 117.6171875 C-28.83288858 110.70974898 -28.83288858 110.70974898 -24.49365234 100.75 C-24.47992046 97.10443907 -24.63533794 93.51260065 -24.875 89.875 C-25.6514782 77.02774132 -25.6514782 77.02774132 -21.78613281 72.28173828 C-18.76773324 69.72364208 -15.6617936 67.31274695 -12.5 64.9375 C-5.57010573 59.69712487 -1.15136573 54.76245511 0.18310547 45.93457031 C1.71560775 30.68950948 0.85181381 15.25931367 0 0 Z " fill="#53BCDA" transform="translate(312,312)"/>
<path d="M0 0 C10.56 0 21.12 0 32 0 C31.80535156 3.48691406 31.61070312 6.97382813 31.41015625 10.56640625 C29.06545069 35.43814264 29.06545069 35.43814264 36.67015076 57.99116516 C39.59111944 61.07241019 42.77058258 63.6367337 46.1567688 66.18362427 C55.58099773 73.27942158 55.58099773 73.27942158 56.8125 78.33642578 C56.98434564 83.3353886 56.60762302 88.20723943 56.19311523 93.1862793 C55.90865585 100.88733318 57.04230043 105.25835222 62.09765625 110.921875 C66.98036333 116.1027296 72.37309106 120.76400694 77.90454102 125.23535156 C78.59604248 125.81768555 79.28754395 126.40001953 80 127 C80 127.33 80 127.66 80 128 C53.6 128 27.2 128 0 128 C6.65501705 120.23581344 6.65501705 120.23581344 10.3046875 117.16015625 C11.05234375 116.48791016 11.8 115.81566406 12.5703125 115.12304688 C14.10264516 113.75303759 15.66305466 112.41378066 17.25 111.10742188 C22.07225232 106.65061899 23.95452577 102.53058218 24.2265625 95.9609375 C24.17061331 91.76516793 23.74102093 88.8107242 20.81201172 85.60620117 C18.83605108 84.27549026 16.83604582 82.9800754 14.81860352 81.71313477 C8.12751624 77.37694792 2.81846314 72.65472616 0 65 C-2.10530031 53.86281106 -1.73190238 42.34742876 -1.4375 31.0625 C-1.41781158 30.3038628 -1.39812317 29.5452256 -1.37783813 28.7635994 C-1.11029467 19.15854305 -0.57865853 9.59678608 0 0 Z " fill="#53BCDA" transform="translate(168,312)"/>
</svg>
