<?xml version="1.0" encoding="UTF-8"?>
<svg version="1.1" xmlns="http://www.w3.org/2000/svg" width="512" height="512">
<path d="M0 0 C1.17231674 -0.00137466 2.34463348 -0.00274933 3.55247498 -0.00416565 C5.49131813 0.00122726 5.49131813 0.00122726 7.46932983 0.00672913 C8.83906553 0.00701109 10.20880138 0.00685309 11.57853699 0.00628662 C15.30351953 0.00599899 19.02847006 0.01189024 22.75344515 0.01886058 C26.64387634 0.02509976 30.53430822 0.02569836 34.42474365 0.02688599 C41.79474694 0.02999763 49.16473545 0.03820879 56.53473222 0.04823548 C64.92397608 0.05940177 73.31322063 0.06490837 81.70247006 0.06993091 C98.96249308 0.08039153 116.22250169 0.09798776 133.48251343 0.12025452 C133.48251343 0.78025452 133.48251343 1.44025452 133.48251343 2.12025452 C140.74251343 2.12025452 148.00251343 2.12025452 155.48251343 2.12025452 C155.48251343 1.46025452 155.48251343 0.80025452 155.48251343 0.12025452 C162.08251343 0.12025452 168.68251343 0.12025452 175.48251343 0.12025452 C175.48251343 0.78025452 175.48251343 1.44025452 175.48251343 2.12025452 C182.08251343 2.12025452 188.68251343 2.12025452 195.48251343 2.12025452 C195.48251343 3.44025452 195.48251343 4.76025452 195.48251343 6.12025452 C194.16251343 6.12025452 192.84251343 6.12025452 191.48251343 6.12025452 C191.48251343 24.60025452 191.48251343 43.08025452 191.48251343 62.12025452 C192.80251343 62.12025452 194.12251343 62.12025452 195.48251343 62.12025452 C195.48251343 63.44025452 195.48251343 64.76025452 195.48251343 66.12025452 C190.86251343 66.12025452 186.24251343 66.12025452 181.48251343 66.12025452 C181.48251343 71.40025452 181.48251343 76.68025452 181.48251343 82.12025452 C183.46251343 82.12025452 185.44251343 82.12025452 187.48251343 82.12025452 C187.56405276 83.70272159 187.621949 85.28641724 187.67001343 86.87025452 C187.72222046 88.19283264 187.72222046 88.19283264 187.77548218 89.54212952 C187.42529117 92.62381039 186.61866345 93.90424842 184.48251343 96.12025452 C182.48680019 96.79964626 180.48656569 97.4658701 178.48251343 98.12025452 C177.97971359 98.79256607 177.47691376 99.46487762 176.95887756 100.15756226 C172.96070856 103.32639161 168.74775357 102.61561826 163.79818726 102.52333069 C162.70990631 102.51921173 161.62162537 102.51509277 160.50036621 102.510849 C158.13603787 102.5000847 155.77173707 102.48053475 153.40754128 102.45328331 C149.66174851 102.41292377 145.91691163 102.40146873 142.1709137 102.39865112 C131.52037657 102.38687773 120.87058657 102.33480805 110.22055054 102.23377991 C103.70594826 102.17232741 97.19210146 102.15854786 90.6772213 102.16993141 C88.19771328 102.16548135 85.71817519 102.14425405 83.23896217 102.10574913 C79.76266719 102.05276924 76.29038861 102.05549296 72.81381226 102.07020569 C71.79582047 102.04091476 70.77782867 102.01162384 69.72898865 101.98144531 C65.21691726 102.05216446 62.51469779 102.29147125 58.92413902 105.17447853 C56.52159774 107.59824082 56.52159774 107.59824082 54.44962597 110.13348866 C52.48251343 112.12025452 52.48251343 112.12025452 50.38200092 112.71600628 C48.42001343 112.68275452 48.42001343 112.68275452 45.48251343 112.12025452 C45.48251343 108.82025452 45.48251343 105.52025452 45.48251343 102.12025452 C37.99247513 101.99063468 30.5066292 101.9341293 23.01547241 101.94325256 C20.47139655 101.93630727 17.92729237 101.90991774 15.38363647 101.86317444 C-0.46991144 100.80963153 -0.46991144 100.80963153 -14.24311829 107.08966064 C-16.21591514 109.29475401 -17.88729609 111.65504669 -19.51748657 114.12025452 C-21.81994532 115.27148389 -23.14138361 115.24925511 -25.70108032 115.25306702 C-26.54187134 115.25500061 -27.38266235 115.2569342 -28.24893188 115.25892639 C-29.58842896 115.25215881 -29.58842896 115.25215881 -30.95498657 115.24525452 C-32.3080188 115.24235413 -32.3080188 115.24235413 -33.68838501 115.23939514 C-40.00493631 115.19851131 -46.24665017 114.92568305 -52.51748657 114.12025452 C-52.77401001 114.84212952 -53.03053345 115.56400452 -53.29483032 116.30775452 C-54.58830718 119.28316455 -56.12783092 121.53315531 -58.07998657 124.12025452 C-59.13379517 125.5491803 -59.13379517 125.5491803 -60.20889282 127.00697327 C-61.39430296 128.60557204 -62.58000601 130.20396285 -63.77090454 131.79847717 C-65.0338878 133.50004336 -66.27685748 135.21484607 -67.51748657 136.93275452 C-68.28061157 137.97044983 -69.04373657 139.00814514 -69.82998657 140.07728577 C-71.69583429 143.44185839 -71.9595485 145.33509925 -71.51748657 149.12025452 C-71.18748657 149.45025452 -70.85748657 149.78025452 -70.51748657 150.12025452 C-70.60342407 152.15150452 -70.60342407 152.15150452 -70.89248657 154.62025452 C-71.02783813 155.84228577 -71.02783813 155.84228577 -71.16592407 157.08900452 C-71.51748657 159.12025452 -71.51748657 159.12025452 -72.51748657 160.12025452 C-80.4131372 161.12481411 -86.03985571 157.9754612 -92.95498657 154.43275452 C-94.60530884 153.63708069 -94.60530884 153.63708069 -96.28897095 152.82533264 C-97.85421509 152.03739319 -97.85421509 152.03739319 -99.45108032 151.23353577 C-100.40039429 150.75698547 -101.34970825 150.28043518 -102.32778931 149.78944397 C-104.51748657 148.12025452 -104.51748657 148.12025452 -105.45425415 145.66493225 C-105.5256117 142.79327297 -105.12602528 141.68674755 -103.59561157 139.29212952 C-103.15193237 138.58282288 -102.70825317 137.87351624 -102.25112915 137.14271545 C-101.7615271 136.39280334 -101.27192505 135.64289124 -100.76748657 134.87025452 C-100.27466187 134.08682678 -99.78183716 133.30339905 -99.27407837 132.49623108 C-96.6911072 128.4109237 -94.03082143 124.38102865 -91.33389282 120.37025452 C-90.83019165 119.61389709 -90.32649048 118.85753967 -89.80752563 118.07826233 C-88.84252535 116.63618325 -87.86448917 115.20271939 -86.87197876 113.7794342 C-84.21254685 109.82044084 -82.62539747 107.0588598 -83.51748657 102.12025452 C-84.59765369 100.35642308 -84.59765369 100.35642308 -86.51748657 99.12025452 C-89.48476715 98.64499317 -89.48476715 98.64499317 -92.91665649 98.68788147 C-93.56083023 98.67768982 -94.20500397 98.66749817 -94.86869812 98.65699768 C-96.99520526 98.62683412 -99.12126224 98.6175972 -101.24795532 98.60853577 C-102.7234192 98.59169146 -104.1988687 98.57354155 -105.67430115 98.55413818 C-109.55567941 98.50660458 -113.43699942 98.47681726 -117.318573 98.45069885 C-121.28017688 98.42091007 -125.24157994 98.37437404 -129.20303345 98.32923889 C-136.97441825 98.24316768 -144.74581759 98.17583971 -152.51748657 98.12025452 C-152.82485245 98.74569153 -153.13221832 99.37112854 -153.44889832 100.01551819 C-154.44045831 101.96853642 -155.51621683 103.65915119 -156.79483032 105.43275452 C-157.22602173 106.03345764 -157.65721313 106.63416077 -158.10147095 107.25306702 C-158.5481311 107.86923889 -158.99479126 108.48541077 -159.45498657 109.12025452 C-159.89777954 109.73642639 -160.34057251 110.35259827 -160.79678345 110.98744202 C-162.03156404 112.70251729 -163.26912877 114.41503502 -164.51748657 116.12025452 C-165.14034546 117.19847473 -165.14034546 117.19847473 -165.77578735 118.29847717 C-167.51748657 120.12025452 -167.51748657 120.12025452 -170.36489868 120.60609436 C-171.49677612 120.59787659 -172.62865356 120.58965881 -173.79483032 120.58119202 C-175.03039673 120.57732483 -176.26596313 120.57345764 -177.53897095 120.56947327 C-179.47739868 120.53273499 -179.47739868 120.53273499 -181.45498657 120.49525452 C-183.38761353 120.49332092 -183.38761353 120.49332092 -185.35928345 120.49134827 C-195.80396177 120.39337838 -195.80396177 120.39337838 -199.51748657 118.12025452 C-200.50748657 119.11025452 -200.50748657 119.11025452 -201.51748657 120.12025452 C-203.38101196 120.36317444 -203.38101196 120.36317444 -205.61514282 120.35072327 C-206.41629517 120.34878967 -207.21744751 120.34685608 -208.0428772 120.34486389 C-208.88012329 120.3326178 -209.71736938 120.3203717 -210.57998657 120.30775452 C-211.42109985 120.30710999 -212.26221313 120.30646545 -213.1288147 120.30580139 C-219.37725473 120.26048636 -219.37725473 120.26048636 -220.51748657 119.12025452 C-221.28557674 105.52197595 -220.07087232 91.72733985 -219.34561157 78.15223694 C-219.14057459 74.27156708 -218.94995163 70.39034466 -218.75967407 66.50892639 C-218.63034136 64.03947934 -218.50016443 61.57007631 -218.36904907 59.10072327 C-218.31375031 57.94146835 -218.25845154 56.78221344 -218.20147705 55.58782959 C-218.14156586 54.51853714 -218.08165466 53.44924469 -218.01992798 52.34754944 C-217.97107452 51.40763657 -217.92222107 50.46772369 -217.87188721 49.49932861 C-217.51748657 47.12025452 -217.51748657 47.12025452 -215.51748657 44.12025452 C-212.32998657 43.75697327 -212.32998657 43.75697327 -208.51748657 43.80775452 C-206.63029907 43.8135553 -206.63029907 43.8135553 -204.70498657 43.81947327 C-201.51748657 44.12025452 -201.51748657 44.12025452 -199.51748657 46.12025452 C-195.7174954 45.76827474 -193.06055189 44.3613864 -189.75015259 42.56898499 C-180.65098533 38.72503078 -171.03898298 39.64259016 -161.3320446 39.86488724 C-157.72342083 39.94209484 -154.11647413 39.97823195 -150.50712585 40.00254822 C-140.25240007 40.07476057 -129.99946092 40.18548755 -119.74673462 40.4044342 C-80.29910344 42.15036531 -80.29910344 42.15036531 -45.69087219 25.83692932 C-41.53246241 22.55235928 -37.39040821 19.56922031 -31.89639282 19.72962952 C-31.10684204 19.74252014 -30.31729126 19.75541077 -29.5038147 19.76869202 C-28.30401978 19.81896545 -28.30401978 19.81896545 -27.07998657 19.87025452 C-26.25305298 19.88830139 -25.42611938 19.90634827 -24.5741272 19.92494202 C-22.55473724 19.97163311 -20.53595212 20.04336059 -18.51748657 20.12025452 C-18.52908813 19.48216858 -18.5406897 18.84408264 -18.55264282 18.18666077 C-18.56166626 17.3603717 -18.5706897 16.53408264 -18.57998657 15.68275452 C-18.59158813 14.85904358 -18.6031897 14.03533264 -18.61514282 13.18666077 C-18.51748657 11.12025452 -18.51748657 11.12025452 -17.51748657 10.12025452 C-17.28673575 8.77278367 -17.10595594 7.41647887 -16.95498657 6.05775452 C-16.81061157 4.75837952 -16.66623657 3.45900452 -16.51748657 2.12025452 C-15.8910022 2.05966858 -15.26451782 1.99908264 -14.61904907 1.93666077 C-13.39315063 1.81097717 -13.39315063 1.81097717 -12.14248657 1.68275452 C-11.3303772 1.60154358 -10.51826782 1.52033264 -9.68154907 1.43666077 C-6.17442345 0.92388608 -3.71520142 -0.00334703 0 0 Z M-182.51748657 84.12025452 C-183.06492373 86.81852984 -183.06492373 86.81852984 -182.90811157 89.76087952 C-182.89522095 90.83080139 -182.88233032 91.90072327 -182.86904907 93.00306702 C-182.83553345 94.11423889 -182.80201782 95.22541077 -182.76748657 96.37025452 C-182.7494397 97.49689514 -182.73139282 98.62353577 -182.71279907 99.78431702 C-182.66568879 102.56382348 -182.59992018 105.34160791 -182.51748657 108.12025452 C-180.53748657 109.11025452 -180.53748657 109.11025452 -178.51748657 110.12025452 C-176.39032002 107.51785088 -174.26613376 104.91303055 -172.14248657 102.30775452 C-171.53920532 101.56976624 -170.93592407 100.83177795 -170.31436157 100.07142639 C-169.44424438 99.00311584 -169.44424438 99.00311584 -168.55654907 97.91322327 C-168.0223938 97.25862122 -167.48823853 96.60401917 -166.93789673 95.92958069 C-165.72315555 94.38223678 -164.60869188 92.75706248 -163.51748657 91.12025452 C-159.89248657 90.43275452 -159.89248657 90.43275452 -156.51748657 90.12025452 C-156.51748657 86.82025452 -156.51748657 83.52025452 -156.51748657 80.12025452 C-160.1016231 80.01237081 -163.68251805 79.93299147 -167.26748657 79.87025452 C-168.28326782 79.83673889 -169.29904907 79.80322327 -170.34561157 79.76869202 C-171.32529907 79.75580139 -172.30498657 79.74291077 -173.31436157 79.72962952 C-174.21509399 79.70868225 -175.11582642 79.68773499 -176.04385376 79.66615295 C-179.39132663 80.28067127 -180.52513926 81.39050969 -182.51748657 84.12025452 Z M-144.51748657 80.12025452 C-144.51748657 83.42025452 -144.51748657 86.72025452 -144.51748657 90.12025452 C-139.89748657 90.12025452 -135.27748657 90.12025452 -130.51748657 90.12025452 C-130.51748657 86.82025452 -130.51748657 83.52025452 -130.51748657 80.12025452 C-135.13748657 80.12025452 -139.75748657 80.12025452 -144.51748657 80.12025452 Z M-122.51748657 80.12025452 C-122.51748657 83.42025452 -122.51748657 86.72025452 -122.51748657 90.12025452 C-119.21748657 90.12025452 -115.91748657 90.12025452 -112.51748657 90.12025452 C-112.51748657 86.82025452 -112.51748657 83.52025452 -112.51748657 80.12025452 C-115.81748657 80.12025452 -119.11748657 80.12025452 -122.51748657 80.12025452 Z M-38.51748657 102.12025452 C-38.85081991 105.12025452 -38.85081991 105.12025452 -38.51748657 108.12025452 C-36.60341995 110.47666976 -36.60341995 110.47666976 -33.25967407 110.31556702 C-31.34541626 110.28076233 -31.34541626 110.28076233 -29.39248657 110.24525452 C-28.11115845 110.22720764 -26.82983032 110.20916077 -25.50967407 110.19056702 C-24.5222522 110.16736389 -23.53483032 110.14416077 -22.51748657 110.12025452 C-22.18748657 106.82025452 -21.85748657 103.52025452 -21.51748657 100.12025452 C-23.97611058 100.06641603 -26.43356207 100.02666414 -28.89248657 99.99525452 C-29.59115845 99.9784967 -30.28983032 99.96173889 -31.00967407 99.94447327 C-35.22239123 99.75167669 -35.22239123 99.75167669 -38.51748657 102.12025452 Z " fill="#53BCDA" transform="translate(268.5174865722656,303.87974548339844)"/>
<path d="M0 0 C16.92487564 -0.15822191 33.84911687 -0.28708052 50.77452755 -0.3626852 C58.63389057 -0.39872814 66.49276031 -0.44783719 74.35180664 -0.52807617 C81.20450337 -0.59800701 88.05684276 -0.64304521 94.90988642 -0.65861946 C98.5362957 -0.66771894 102.16168301 -0.68899067 105.7877636 -0.7401104 C109.84325704 -0.79681628 113.89699191 -0.79791915 117.95288086 -0.79467773 C119.14547012 -0.81984467 120.33805939 -0.8450116 121.56678772 -0.87094116 C128.83874041 -0.80816186 132.7850242 0.40324597 138.13428879 5.42716503 C141.03584831 7.87324257 143.48495481 7.72062842 147.17578125 7.515625 C148.48998047 7.48154541 149.80417969 7.44746582 151.15820312 7.41235352 C152.17732788 7.37019211 152.17732788 7.37019211 153.21704102 7.32717896 C168.45029982 6.76611477 179.61162354 9.72921313 192 19 C192 19.66 192 20.32 192 21 C178.87675511 30.82072242 167.16456394 33.24983303 151.15820312 32.58764648 C149.84400391 32.55356689 148.52980469 32.5194873 147.17578125 32.484375 C145.42648315 32.38721191 145.42648315 32.38721191 143.6418457 32.28808594 C139.65053153 33.06831468 138.93959491 33.81650805 136.08782959 36.49482727 C130.29520731 41.10594458 125.13485087 40.94623716 117.95288086 40.79467773 C116.67384888 40.79569992 115.39481689 40.79672211 114.07702637 40.79777527 C110.59556231 40.79977084 107.11581176 40.75883294 103.63474345 40.70975757 C99.98734445 40.66577863 96.33989924 40.66186932 92.692276 40.65357971 C85.79671101 40.63188667 78.90192971 40.57453184 72.00670868 40.50413328 C64.15186333 40.42569074 56.29697909 40.38735363 48.4418391 40.35226524 C32.29402926 40.27924171 16.14729797 40.15095274 0 40 C0 26.8 0 13.6 0 0 Z " fill="#FFFFFF" transform="translate(176,216)"/>
<path d="M0 0 C16.92487564 -0.15822191 33.84911687 -0.28708052 50.77452755 -0.3626852 C58.63389057 -0.39872814 66.49276031 -0.44783719 74.35180664 -0.52807617 C81.20450337 -0.59800701 88.05684276 -0.64304521 94.90988642 -0.65861946 C98.5362957 -0.66771894 102.16168301 -0.68899067 105.7877636 -0.7401104 C109.84325704 -0.79681628 113.89699191 -0.79791915 117.95288086 -0.79467773 C119.14547012 -0.81984467 120.33805939 -0.8450116 121.56678772 -0.87094116 C128.83874041 -0.80816186 132.7850242 0.40324597 138.13428879 5.42716503 C141.03584831 7.87324257 143.48495481 7.72062842 147.17578125 7.515625 C148.48998047 7.48154541 149.80417969 7.44746582 151.15820312 7.41235352 C152.17732788 7.37019211 152.17732788 7.37019211 153.21704102 7.32717896 C168.45029982 6.76611477 179.61162354 9.72921313 192 19 C192 19.66 192 20.32 192 21 C178.87675511 30.82072242 167.16456394 33.24983303 151.15820312 32.58764648 C149.84400391 32.55356689 148.52980469 32.5194873 147.17578125 32.484375 C145.42648315 32.38721191 145.42648315 32.38721191 143.6418457 32.28808594 C139.65053153 33.06831468 138.93959491 33.81650805 136.08782959 36.49482727 C130.29520731 41.10594458 125.13485087 40.94623716 117.95288086 40.79467773 C116.67384888 40.79569992 115.39481689 40.79672211 114.07702637 40.79777527 C110.59556231 40.79977084 107.11581176 40.75883294 103.63474345 40.70975757 C99.98734445 40.66577863 96.33989924 40.66186932 92.692276 40.65357971 C85.79671101 40.63188667 78.90192971 40.57453184 72.00670868 40.50413328 C64.15186333 40.42569074 56.29697909 40.38735363 48.4418391 40.35226524 C32.29402926 40.27924171 16.14729797 40.15095274 0 40 C0 26.8 0 13.6 0 0 Z " fill="#FFFFFF" transform="translate(176,160)"/>
<path d="M0 0 C16.92487564 -0.15822191 33.84911687 -0.28708052 50.77452755 -0.3626852 C58.63389057 -0.39872814 66.49276031 -0.44783719 74.35180664 -0.52807617 C81.20450337 -0.59800701 88.05684276 -0.64304521 94.90988642 -0.65861946 C98.5362957 -0.66771894 102.16168301 -0.68899067 105.7877636 -0.7401104 C109.84325704 -0.79681628 113.89699191 -0.79791915 117.95288086 -0.79467773 C119.14547012 -0.81984467 120.33805939 -0.8450116 121.56678772 -0.87094116 C128.83874041 -0.80816186 132.7850242 0.40324597 138.13428879 5.42716503 C141.03584831 7.87324257 143.48495481 7.72062842 147.17578125 7.515625 C148.48998047 7.48154541 149.80417969 7.44746582 151.15820312 7.41235352 C152.17732788 7.37019211 152.17732788 7.37019211 153.21704102 7.32717896 C168.45029982 6.76611477 179.61162354 9.72921313 192 19 C192 19.66 192 20.32 192 21 C178.87675511 30.82072242 167.16456394 33.24983303 151.15820312 32.58764648 C149.84400391 32.55356689 148.52980469 32.5194873 147.17578125 32.484375 C145.42648315 32.38721191 145.42648315 32.38721191 143.6418457 32.28808594 C139.65053153 33.06831468 138.93959491 33.81650805 136.08782959 36.49482727 C130.29520731 41.10594458 125.13485087 40.94623716 117.95288086 40.79467773 C116.67384888 40.79569992 115.39481689 40.79672211 114.07702637 40.79777527 C110.59556231 40.79977084 107.11581176 40.75883294 103.63474345 40.70975757 C99.98734445 40.66577863 96.33989924 40.66186932 92.692276 40.65357971 C85.79671101 40.63188667 78.90192971 40.57453184 72.00670868 40.50413328 C64.15186333 40.42569074 56.29697909 40.38735363 48.4418391 40.35226524 C32.29402926 40.27924171 16.14729797 40.15095274 0 40 C0 26.8 0 13.6 0 0 Z " fill="#FFFFFF" transform="translate(176,104)"/>
<path d="M0 0 C5.28 0 10.56 0 16 0 C16 13.2 16 26.4 16 40 C10.72 40 5.44 40 0 40 C0 26.8 0 13.6 0 0 Z " fill="#FFFFFF" transform="translate(144,216)"/>
<path d="M0 0 C5.28 0 10.56 0 16 0 C16 13.2 16 26.4 16 40 C10.72 40 5.44 40 0 40 C0 26.8 0 13.6 0 0 Z " fill="#FFFFFF" transform="translate(144,160)"/>
<path d="M0 0 C5.28 0 10.56 0 16 0 C16 13.2 16 26.4 16 40 C10.72 40 5.44 40 0 40 C0 26.8 0 13.6 0 0 Z " fill="#FFFFFF" transform="translate(144,104)"/>
</svg>
